<svg width="147" height="192" viewBox="0 0 147 192" fill="none" xmlns="http://www.w3.org/2000/svg">
<g filter="url(#filter0_d_1107_415)">
<path d="M73.5 2C36.2231 2 6 32.2231 6 69.5C6 84.1784 10.8122 97.6475 18.8109 108.678C18.9544 108.942 18.9769 109.238 19.14 109.491L64.14 176.991C66.2269 180.121 69.7425 182 73.5 182C77.2575 182 80.7731 180.121 82.86 176.991L127.86 109.491C128.026 109.238 128.046 108.942 128.189 108.678C136.188 97.6475 141 84.1784 141 69.5C141 32.2231 110.777 2 73.5 2ZM73.5 92C61.0744 92 51 81.9256 51 69.5C51 57.0744 61.0744 47 73.5 47C85.9256 47 96 57.0744 96 69.5C96 81.9256 85.9256 92 73.5 92Z" fill="#EA5C0C"/>
</g>
<defs>
<filter id="filter0_d_1107_415" x="0.6" y="0.6" width="145.8" height="190.8" filterUnits="userSpaceOnUse" color-interpolation-filters="sRGB">
<feFlood flood-opacity="0" result="BackgroundImageFix"/>
<feColorMatrix in="SourceAlpha" type="matrix" values="0 0 0 0 0 0 0 0 0 0 0 0 0 0 0 0 0 0 127 0" result="hardAlpha"/>
<feOffset dy="4"/>
<feGaussianBlur stdDeviation="2.7"/>
<feComposite in2="hardAlpha" operator="out"/>
<feColorMatrix type="matrix" values="0 0 0 0 0 0 0 0 0 0 0 0 0 0 0 0 0 0 0.56 0"/>
<feBlend mode="normal" in2="BackgroundImageFix" result="effect1_dropShadow_1107_415"/>
<feBlend mode="normal" in="SourceGraphic" in2="effect1_dropShadow_1107_415" result="shape"/>
</filter>
</defs>
</svg>
