<svg width="200" height="200" viewBox="0 0 200 200" fill="none" xmlns="http://www.w3.org/2000/svg">
<circle cx="100" cy="100" r="100" fill="#EA5C0C"/>
<path d="M140.92 107.431C148.222 107.431 154.143 101.514 154.143 94.2117C154.143 86.9097 148.222 80.9888 140.92 80.9888C133.62 80.9888 127.699 86.9097 127.699 94.2117C127.699 101.514 133.62 107.431 140.92 107.431Z" fill="white"/>
<path d="M157.846 120.172C157.257 116.631 154.33 111.677 152.115 109.463C151.823 109.17 150.519 109.102 150.167 109.32C147.474 110.976 144.311 111.951 140.915 111.951C137.524 111.951 134.36 110.976 131.667 109.32C131.313 109.102 130.011 109.17 129.719 109.463C129.1 110.082 128.424 110.907 127.766 111.863C129.548 115.218 130.961 118.783 131.471 121.852C131.981 124.929 131.816 127.843 130.991 130.498C133.92 131.558 137.431 132.023 140.915 132.023C150.002 132.023 159.301 128.872 157.846 120.172Z" fill="white"/>
<path d="M100.157 101.853C111.991 101.853 121.586 92.2583 121.586 80.4246C121.586 68.5944 111.991 59 100.157 59C88.3252 59 78.7344 68.5944 78.7344 80.4246C78.7344 92.2583 88.325 101.853 100.157 101.853Z" fill="white"/>
<path d="M118.308 105.135C117.843 104.672 115.732 104.553 115.158 104.909C110.789 107.596 105.663 109.17 100.164 109.17C94.6686 109.17 89.5399 107.596 85.1739 104.909C84.6001 104.553 82.4885 104.672 82.0236 105.135C78.4251 108.729 73.6825 116.765 72.7284 122.494C70.3758 136.606 85.4489 141.7 100.164 141.7C114.883 141.7 129.956 136.606 127.603 122.494C126.649 116.765 121.907 108.729 118.308 105.135Z" fill="white"/>
<path d="M60.0784 107.431C67.3787 107.431 73.2994 101.514 73.2994 94.2117C73.2994 86.9097 67.3787 80.9888 60.0784 80.9888C52.7762 80.9888 46.8555 86.9097 46.8555 94.2117C46.8555 101.514 52.7762 107.431 60.0784 107.431Z" fill="white"/>
<path d="M68.8513 121.852C69.3935 118.628 70.9233 114.833 72.8412 111.323C72.3067 110.592 71.7723 109.956 71.2791 109.463C70.9873 109.17 69.685 109.102 69.3313 109.32C66.638 110.976 63.4743 111.951 60.0814 111.951C56.688 111.951 53.5224 110.976 50.8313 109.32C50.4791 109.102 49.1733 109.17 48.8815 109.463C46.6608 111.676 43.742 116.631 43.1508 120.172C41.698 128.872 50.9951 132.023 60.0814 132.023C63.3241 132.023 66.5987 131.623 69.3935 130.711C68.5128 128.001 68.3264 125.02 68.8513 121.852Z" fill="white"/>
</svg>
