<svg width="200" height="200" viewBox="0 0 200 200" fill="none" xmlns="http://www.w3.org/2000/svg">
<circle cx="100" cy="100" r="100" fill="#293476"/>
<path d="M45.9923 92.6766L45.9698 92.9329C45.8895 95.0613 46.5638 96.9549 47.871 98.2651C49.7891 100.184 52.8801 100.624 55.8394 99.3335L67.3538 93.288L78.6489 99.2298L78.8705 99.3352C80.0148 99.8342 81.1652 100.088 82.2839 100.088C84.0479 100.088 85.6638 99.4415 86.838 98.2646C88.147 96.9545 88.8203 95.0608 88.7391 92.9325L87.2223 80.4347L95.7357 71.9926L95.9966 71.6982C97.6235 69.631 98.118 67.2122 97.3538 65.063C96.5906 62.913 94.6619 61.2982 92.0668 60.6297L79.1246 58.6045L73.5724 47.8153L73.3775 47.4921C71.8758 45.2748 69.6219 44.001 67.1951 44.001C64.9004 44.001 62.7061 45.1623 61.1755 47.1871L54.4336 58.597L42.921 60.4628L42.5614 60.5411C39.9851 61.2518 38.0835 62.8988 37.3372 65.0595C36.5923 67.2197 37.0946 69.6407 38.7146 71.6969L47.4889 80.4334L45.9923 92.6766ZM43.853 67.7271C43.5833 67.345 43.5641 67.1072 43.5769 67.0669C43.592 67.0267 43.7567 66.8451 44.2213 66.6928L58.6052 64.3608L66.5823 50.8115C66.9002 50.4312 67.1432 50.3506 67.1932 50.3506C67.2396 50.3506 67.4781 50.4413 67.7808 50.8394L74.7379 64.355L90.5013 66.8004C90.9265 66.9297 91.1063 67.0847 91.1274 67.109C91.1339 67.1639 91.0935 67.3879 90.8536 67.7289L80.3221 78.1758L82.1674 93.2739C82.1674 93.47 82.1481 93.621 82.1256 93.7246C82.0206 93.7082 81.8679 93.6697 81.6674 93.5891L67.3519 86.06L53.0374 93.5891C52.8425 93.6675 52.6916 93.706 52.5792 93.7224C52.5558 93.6192 52.5374 93.4682 52.5374 93.2739L54.3836 78.1758L43.853 67.7271Z" fill="white"/>
<path d="M157.769 60.6274L144.827 58.6022L139.276 47.8126L139.078 47.4912C137.578 45.2738 135.324 44 132.898 44C130.604 44 128.409 45.1614 126.879 47.1861L120.136 58.596L108.623 60.4618L108.264 60.5401C105.689 61.2508 103.785 62.8978 103.041 65.0585C102.296 67.2192 102.797 69.6397 104.417 71.6959L113.192 80.4324L111.695 92.6756L111.672 92.932C111.59 95.0603 112.267 96.954 113.572 98.2641C115.491 100.183 118.584 100.623 121.54 99.3325L133.054 93.287L144.35 99.2289L144.573 99.3342C145.716 99.8332 146.868 100.087 147.985 100.087C149.749 100.087 151.365 99.4405 152.54 98.2637C153.848 96.9535 154.52 95.0599 154.442 92.9315L152.923 80.4338L161.437 71.9917L161.698 71.6972C163.325 69.63 163.819 67.2112 163.055 65.062C162.294 62.9129 160.363 61.2959 157.769 60.6274ZM156.559 67.7266L146.025 78.1735L147.873 93.2716C147.873 93.4681 147.851 93.6187 147.829 93.7223C147.724 93.7059 147.571 93.6674 147.372 93.5868L133.055 86.0581L118.743 93.5868C118.548 93.6643 118.396 93.7028 118.284 93.7201C118.259 93.6156 118.242 93.4659 118.242 93.2716L120.086 78.1735L109.555 67.7248C109.285 67.3414 109.266 67.1049 109.278 67.0646C109.293 67.0244 109.458 66.8428 109.922 66.6905L124.308 64.3585L132.283 50.8092C132.6 50.4289 132.845 50.3483 132.896 50.3483C132.941 50.3483 133.18 50.4395 133.482 50.8371L140.439 64.3523L156.203 66.7977C156.629 66.9269 156.809 67.0819 156.83 67.1067C156.84 67.1612 156.797 67.3856 156.559 67.7266Z" fill="white"/>
<path d="M123.639 115.86L110.699 113.834L105.146 103.046L104.954 102.722C103.452 100.504 101.199 99.2305 98.7727 99.2305C96.4766 99.2305 94.2823 100.392 92.7531 102.418L86.0102 113.826L74.4959 115.694L74.1386 115.773C71.5654 116.482 69.6624 118.129 68.9175 120.288C68.1695 122.45 68.6712 124.869 70.2917 126.925L79.066 135.662L77.5685 147.907L77.5474 148.163C77.4657 150.292 78.1413 152.184 79.4472 153.495C81.3676 155.417 84.4609 155.85 87.4179 154.563L98.9323 148.519L110.224 154.46L110.444 154.563C111.59 155.065 112.741 155.317 113.858 155.317C115.625 155.317 117.239 154.668 118.414 153.495C119.722 152.184 120.396 150.292 120.315 148.163L118.797 135.666L127.312 127.223L127.571 126.929C129.198 124.86 129.695 122.441 128.928 120.292C128.167 118.145 126.238 116.527 123.639 115.86ZM122.432 122.961L111.9 133.407L113.745 148.505C113.745 148.705 113.726 148.851 113.704 148.957C113.597 148.938 113.447 148.901 113.246 148.82L98.9318 141.29L84.6164 148.82C84.4182 148.899 84.2696 148.936 84.1581 148.953C84.1357 148.85 84.1164 148.701 84.1164 148.502L85.9612 133.405L75.4283 122.957C75.1596 122.573 75.1394 122.337 75.1518 122.296C75.1701 122.254 75.332 122.072 75.7971 121.921L90.18 119.589L98.1571 106.041C98.475 105.661 98.7181 105.578 98.7695 105.578C98.8158 105.578 99.0543 105.669 99.3561 106.068L106.314 119.582L122.075 122.028C122.501 122.158 122.679 122.312 122.703 122.336C122.712 122.395 122.672 122.618 122.432 122.961Z" fill="white"/>
</svg>
